<svg id="b820d5e2-af85-4d91-b528-ad112a6be7db" data-name="Layer 1" xmlns="http://www.w3.org/2000/svg" width="604.12" height="441.42" viewBox="0 0 604.12 441.42"><path d="M223,119.86c.17.72.12,1.67.56,2.1,4.36,4.2,3.44,9.11,1.78,14-1.55,4.56-3.55,9-5.34,13.45q-5.67,14.14-11.32,28.28c-.24.6-.62,1.37-.44,1.91,1.66,5-1,9.3-2.59,13.66-4.35,12.23-9,24.35-13.54,36.52a9.46,9.46,0,0,0,.24,7.27q13.24,31.26,26.4,62.56c3.52,8.36,7.07,16.71,10.56,25.08,1.15,2.73,2.83,4.17,6.07,4.09,5.1-.12,10.2.39,15.31.36,7.34,0,14.69-.36,22-.52q12.28-.26,24.55-.43c3.74-.05,7.47.06,11.2-.08a11.87,11.87,0,0,0,3.78-1c3.78-1.5,5.91-4.21,7.24-8.2,3.59-10.81,7.74-21.44,11.55-32.19,2.32-6.56,2.17-13-1.17-19.32-2.56-4.85-4.76-9.89-7.22-14.8-.85-1.7-2.15-3.19-2.92-4.92a24.59,24.59,0,0,1-2.2-6.68c-.26-2-.85-2.9-2.88-2.65a8.36,8.36,0,0,1-1,0c-2.08,0-4.61,1.39-6.06-.81-1.76-2.67-3.52-5.68-2.15-9.11,2.15-5.4,4.23-10.85,6.84-16,2.69-5.34,5.91-10.41,9-15.53,3.78-6.24,9.51-8.92,16.72-9.15,13.06-.41,26.14-.7,39.17-1.59,17.43-1.2,34.84-2.8,52.23-4.47A18.87,18.87,0,0,0,443,174.13c2.19-2.88,5.55-3.72,8.92-3.76,21.41-.26,42.82-.33,64.22-.59a16.58,16.58,0,0,1,14.18,6.89c.55.72,1.33,1.28,1.86,2,2.14,3,4.95,3.95,8.62,3.73,4.47-.28,6.27,1.67,6.16,6.15-.06,2.74-.54,5.46-.67,8.2a5.46,5.46,0,0,0,.62,3c2.47,3.93,5,7.82,7.72,11.6a13,13,0,0,0,3.13,2.44c1.31.95,3.09,1.58,3.9,2.85,3.21,5,6.11,10.11,9.13,15.19a6,6,0,0,1-.23,6.21c-1.28,2.3-.72,4.2.26,6.34,3.61,7.86,7.11,15.77,10.65,23.67a10.22,10.22,0,0,1-.7,10.45c-2.94,4.44-5.92,8.85-8.79,13.34a2.2,2.2,0,0,0,.11,2,24.54,24.54,0,0,0,2.78,2.49,92.36,92.36,0,0,1,24.43,35.75c.79,2.05,2.19,3.86,3.17,5.85,1.89,3.84,1.6,7.74.2,11.66a12.33,12.33,0,0,0-.59,2.61c-.26,2.21-1,2.73-2.92,1.73-1.14-.61-2.17-1.42-3.26-2.13.06,1.54.06,3.09.2,4.62a76.61,76.61,0,0,1-13.24,51.39c-13.67,20-32.85,31.84-56.92,34.45-26.71,2.9-49.55-6-67.94-25.6a74.73,74.73,0,0,1-15.9-26.62,3.23,3.23,0,0,0-3.61-2.55c-8.25.09-16.5,0-24.75.05a8.76,8.76,0,0,0-2.95.35c-9.54,3.65-19.57,3.75-29.55,4.1-9.24.32-18.48.4-27.72.68a9.12,9.12,0,0,0-3,1c-1.51.61-3,1.29-4.5,1.9-.38.16-1,0-1.19.24a3.78,3.78,0,0,1-3.6,1.77c-1.6,0-3.22.92-4.59-.65-1.72,1.8-3.92.57-5.88.82-1.33.18-2.75-.44-4.15-.51-.55,0-1.16.7-1.68.64-2.39-.29-5.07.54-7-.15-2.32-.82-4.66,1.61-6.76-.65-.38-.42-2.22.76-3.37.73a20.24,20.24,0,0,1-4-.87,3.3,3.3,0,0,0-1.12-.12c-4.18.56-8.34,1.18-12.52,1.7-2.31.29-4.45.26-5.6-2.49a3.53,3.53,0,0,0-2.79-1.47c-12.48.21-25,.59-37.45.85-6.67.14-13.34-.09-20,.23-17.54.85-32.72-5.15-46.12-15.92-3.69-3-6.5-7.05-9.59-10.73-1.38-1.65-2.43-3.58-3.67-5.35a5.21,5.21,0,0,0-1.07-.9,4.9,4.9,0,0,0-.55,1.28c-.45,4-.66,8-1.3,11.9a77.39,77.39,0,0,1-19.54,40.3c-13.76,15.11-30.9,23.88-51.16,26a77.86,77.86,0,0,1-42.57-7.22A79.52,79.52,0,0,1,10.34,396.7C2.6,380.52,1,363.48,4.46,346A76.91,76.91,0,0,1,23.58,308.7a6.86,6.86,0,0,0,.85-1.64c-.56,0-1.11-.07-1.67-.09-.17,0-.34.11-.49.08l-3.88-.92c.55-1.29.74-3.05,1.7-3.78,5.64-4.25,11.21-8.66,17.25-12.27,16.57-9.9,34.93-14.13,53.93-16,3.47-.33,7-.17,10.46-.24.4,0,.8-.08,1.2-.12a5.51,5.51,0,0,0-.42-1.32c-4.63-6.82-9.08-13.77-14-20.37-3-4-3.59-8.49-4.51-13a5.62,5.62,0,0,1,.89-3c1.69-3.53,3.36-7.08,5.24-10.5,2-3.66,2.39-7.54,2.16-11.59a4.58,4.58,0,0,1,.27-2.16c2.35-4.85,4.84-9.62,7.18-14.47a121.09,121.09,0,0,1,20.16-29.9c2-2.17,3.88-3.33,6.6-3.56a9.45,9.45,0,0,0,6.69-3.5c5.44-6.61,10.74-13.36,16.26-19.9,6.82-8.06,13.79-16,20.76-23.93a24.53,24.53,0,0,1,4.18-3.55c3.89-2.77,8-3.74,12.32-1,2.29,1.47,3.85,1.24,5.27-1.21s3.08-4.81,6.55-4.6c.49,0,1.18-.84,1.54-1.44,1.56-2.56,3-5.19,4.54-7.75.68-1.14.34-1.72-.7-2.41-6.08-4-6-4-11.29,1a61.36,61.36,0,0,1-7.39,6.3c-4,2.81-7.59,1.32-8.44-3.49A30.37,30.37,0,0,1,180,78.51,104.7,104.7,0,0,1,203.06,49c.8-.72,1.57-1.49,2.37-2.22,2.82-2.56,6.48-1.7,7.15,2.08a18.84,18.84,0,0,1-.63,8c-1.61,5.93-3.6,11.74-5.47,17.59-.59,1.84,0,2.09,1.74,1.7a24.21,24.21,0,0,1,5-.27c1.41,0,2.37-.58,2.18-2-1.07-7.89,2-15,4.68-22s2.36-13.72,1.81-20.85c-.5-6.43,0-12.95.32-19.42a9.14,9.14,0,0,1,1.43-3.94c2-3.49,6.32-4.32,9.1-1.43a14.55,14.55,0,0,1,3.8,6.57c1.69,7.83,2.56,15.83.51,23.73-.62,2.36-2.4,4.45-3.84,6.53a3.2,3.2,0,0,1-2.33,1.27c-2.47-.09-3,1.56-3.6,3.35-1.88,5.69-3.83,11.36-5.68,17.06a11.92,11.92,0,0,0-.53,3.42c-.06,4.24,0,8.49,0,12.73,0,2.94,2,4,4.57,2.56,7.91-4.51,14.79-2.16,18.3,6.19,1.76,4.19,3.18,8.5,6.64,11.85,2.17,2.11,1.79,5.57-.13,8-1.52,2-4.82,3.14-7.21,1.83-4.22-2.32-8.32-.08-12.46-.21-.38,0-1.05,1-1.12,1.59-.17,1.48-.06,3-.09,4.49,0,2.92-.37,3.27-3.38,3.2a22.79,22.79,0,0,1-3.16-.49c.19-1,.06-2.68.63-3,3.06-1.54,1.49-4.2,1.82-6.37,0-.11-.49-.31-.75-.47a43.07,43.07,0,0,0-3.5,6.55C220.92,117.4,222.35,118.77,223,119.86Zm7.5-30.95-.5.5-.5.5-.51.49c-.49.84-1,1.67-1.49,2.51-1,4.2-1.32,8.37.5,12.46l.49,1v0l-.5-1q-.26-6.26-.5-12.5L229,90.4l.49-.51.5-.5.5-.5Zm-29,225.23.5.5,1,1.5,1,1.49.5.51.5,1,0,0c-.17-.33-.33-.66-.49-1l-.51-.51-1-1.49-1-1.5-.5-.51-.5-1-.5-.5-1-1.5-.5-.5-.5-1-.5-.5-2-3-1-1.5-1-1.5-.5-.5-4.49-6.5-1-1.5c-2.63-4-5.18-8.12-7.91-12.08-7.82-11.39-15.72-22.72-23.58-34.08-3.54-5.12-3.54-13.9,4.71-17.67,4.31-2,8.67-3.85,13-5.81,5.74-2.62,10.71-6.11,13.39-12.1q14.09-31.58,28.14-63.15c2.27-5.09,4.58-10.16,6.83-15.26a11,11,0,0,0,.28-8.72c-.19-.5-.95-.78-1.45-1.16a16,16,0,0,1-.39,1.55,18,18,0,0,1-1.63,4.31c-5.64,8.14-11.43,16.17-17.12,24.27Q178,189.3,153.86,223.89a23,23,0,0,0-3.73,7.51c-1.48,6.21,1.15,11.65,4.55,16.58,8.46,12.26,17.12,24.38,25.74,36.53,2.44,3.45,5.05,6.78,7.58,10.16l1,1.5,4.51,6.48.5.5,1,1.5,1,1.5c.66,1,1.33,2,2,3l.5.51.5,1,.5.51,1,1.49.5.5ZM107,190.28l.5-1,1-1.49,1-1.5,1.5-2.49,1.5-2.5h0L111,183.81l-1.5,2.49-1,1.5-1,1.49c-.17.34-.33.67-.5,1ZM334.51,379.59l-1,1c-.13,1.21-.27,2.41-.38,3.62a2.51,2.51,0,0,0,.15.7,3.21,3.21,0,0,0,.17-.66c0-1.23,0-2.45,0-3.68.33-.33.66-.67,1-1Zm-126-55.46.51.5c3.59,7.47,9.47,12.28,17.55,13.83a105.43,105.43,0,0,0,18.05,2c11.24.18,22.48-.21,33.72-.44q6.74-.13,13.47-.55,27.65-1.62,55.31-3.32c12-.72,24.09-1.33,36.12-2.17,17.59-1.23,35.18-2.61,52.76-4,3.07-.24,6.13-.59,9.19-.92.34,0,.65-.35,1-.54a3.52,3.52,0,0,0-1.09-.31c-1.91.1-3.81.29-5.72.41q-13.59.82-27.16,1.62c-10.71.62-21.43,1.63-32.15,1.72-22.06.17-44.12-.17-66.18-.28-.91,0-2.07-.21-2.69.25-2.43,1.79-5.14,1-7.73,1.13-1.05.06-2.12-.37-3.18-.35-6.05.1-12.1.32-18.15.4-3.88.06-7.76-.13-11.64-.05-4.69.09-9.38.43-14.07.51-6.41.1-12.84.24-19.24,0-4.85-.16-9.69-.83-14.53-1.32-5.65-.57-9.81-3.84-13.63-7.67l-.51-.51-1-1.5-1-1.49,0,0,1,1.5ZM233,87.39h3.5l.21.08-.23-.06H233l-.19.14Zm110,292.2,0,0a14.4,14.4,0,0,1,.81,1.8,18.13,18.13,0,0,1,.44,2.07,12.46,12.46,0,0,0-.13-2.67C344,380.31,343.39,380,343,379.59ZM128,310.14l0,0c-3.67-5.53-7.18-11.17-11.07-16.55-1.88-2.59-4-2.13-5.47.66a24.2,24.2,0,0,1-1.16,2.2c-1,1.55-.61,2.4,1,3.34C116.91,303.16,122.44,306.68,128,310.14Zm-107.5,22.5c-2,1.48-4,2.94-5.93,4.46-6.52,5.08-8.72,12-8.57,20a4.54,4.54,0,0,0,.31,1.1,8.7,8.7,0,0,0,.69-.91c2.08-3.49,3.6-7.49,6.34-10.35,4-4.15,5.18-9.34,7.14-14.3ZM144,409.55c-4.77,1.46-9.54,2.9-14.3,4.38a5.51,5.51,0,0,0-1.55.78q-4,2.94-8,5.94a5.19,5.19,0,0,0-.81,1.07,4.54,4.54,0,0,0,1.17.25c2.74-.11,5.49-.22,8.22-.43,1.64-.12,3.83.16,4.79-.76,3.71-3.53,7-7.46,10.48-11.25ZM9,340.6q6.57-5.49,13.12-11a5.87,5.87,0,0,0,.92-1.17q3.73-5.28,7.44-10.56a10.74,10.74,0,0,0,.58-1.05,3.9,3.9,0,0,0-1.35.23c-4.31,2.49-8.61,5-12.88,7.56a5.18,5.18,0,0,0-2.17,1.95c-2,4.64-3.78,9.36-5.64,14l-.08.21Zm14.52,70.93,0,0q-.25-6.94-.53-13.88a3.33,3.33,0,0,0-.21-1.22Q20,390,17.23,383.64a3.9,3.9,0,0,0-.56-.74,3.1,3.1,0,0,0-.58.74c-1.88,4.95-2.81,10.4-1.05,15.13S20.6,407.31,23.51,411.53Zm419-69.42a13,13,0,0,0,1.51-.85c2.42-1.75,3.08-1.49,3.71,1.51a4.29,4.29,0,0,0,.22,1c.28.55.63,1.05.95,1.58a6.34,6.34,0,0,0,1.13-1.44c1.18-3,2.09-6.15,3.44-9.09A69.6,69.6,0,0,1,474.88,308a12.12,12.12,0,0,0,1.33-1.35c-.57,0-1.15,0-1.71.07a73.07,73.07,0,0,0-7.42,1,9.73,9.73,0,0,0-4.29,2.08,35.78,35.78,0,0,0-8.62,11.5c-1.11,2.41-2.56,4.67-3.86,7l-7.8,13.9ZM388,214.27a11.34,11.34,0,0,0-2.59,1.86c-3.79,4.83-7.55,9.68-11.18,14.63-2.24,3-5,5.25-8.8,5.48-8,.48-16,.73-23.95,1.07-4.66.19-9.32.31-14,.58-2.88.17-3.13.67-1.58,3.06,4.41,6.76,8.79,13.55,13.36,20.21,3.51,5.09,6.74,10.23,5.71,16.77a55.49,55.49,0,0,1-2.1,9.22c-4.14,12.12-8.48,24.19-12.71,36.28-1,2.89-.62,3.77,2.35,4.49a35.42,35.42,0,0,0,7.63,1.12c8.59.13,17.17,0,25.75,0,2.17,0,4.34.06,6.5-.06.44,0,1.28-.86,1.21-1.09-1.06-3.43.7-6,2.53-8.5a4.63,4.63,0,0,1,3.15-1.82c3,0,6.06.53,9.1.81a10,10,0,0,0,2-.06c2.55-.27,5.11-.49,7.64-.88,1.25-.2,2.43-.95,3.67-1.06a38.82,38.82,0,0,1,6.47,0c1.32.11,2.59,1,3.9,1.06,7.41.14,14.83.14,22.25.14,1.88,0,3.22.32,3.27,2.69s-.57,3.67-3.09,3.85c-4.32.3-8.62.69-12.94,1.07-4.56.4-9.11.8-13.67,1.25a6.08,6.08,0,0,0-1.56.63,5.46,5.46,0,0,0,1.69.48c5.49-.29,11-.64,16.45-1,7.48-.48,15-.91,22.42-1.52a4,4,0,0,0,2.69-1.72c2.28-3.87,4.38-7.84,6.47-11.82,1.07-2,.77-2.4-1.6-2.35a12.41,12.41,0,0,0-1.49.09c-8.1,1-16.19,2-24.3,2.91-12.33,1.36-24.65,2.8-37,3.86-9.61.83-19.27,1.34-28.91,1.6-7.07.19-11.8-4-13.15-10.59a24,24,0,0,1,1.26-14c2.77-6.95,5.69-13.85,8.52-20.79,8.17-20,15.41-40.5,28.63-58Zm-25.53,175.3V389c7.82,0,15.66.32,23.47-.09a138.43,138.43,0,0,0,19.77-2.51c4.42-.9,8.83-2.59,11.36-7q7-12.12,14-24.19c4.06-7,8.17-13.93,12.23-20.91a7.64,7.64,0,0,0,.54-1.59,4.72,4.72,0,0,0-1.34-.28c-8.31.61-16.6,1.28-24.9,1.89-13,1-26.06,2-39.1,2.79-2.42.15-3.86.81-4.65,3.16a42.36,42.36,0,0,1-2.38,4.95c-2.69,5.61-7.28,8.19-13.37,8.43q-12.24.47-24.46,1c-17.56.67-35.11,1.37-52.67,2-11.81.42-23.63.72-35.45,1.11-5,.16-10,.14-15,.7-13.38,1.51-24.06-3.65-32.54-13.4-4.45-5.12-8-11-11.79-16.7q-26.16-39.43-52.19-79a16.89,16.89,0,0,1-1.81-3.54c-4.68-12.85-1.82-24.75,5.62-35.5,7.86-11.36,16.47-22.2,24.75-33.26l31.87-42.59c2.64-3.53,5.31-7,7.93-10.59.6-.83,1.6-1.79-.19-2.52-6.24-2.54-12.47-5.12-18.71-7.64-1.62-.66-2.48,0-3.29,1.58-2.73,5.23-5.18,10.71-8.64,15.42-8.08,11-16.52,21.74-25.13,32.33-15.37,18.89-29.08,38.94-42,59.5a101.85,101.85,0,0,1-13.7,17.72c-3.34,3.39-3.48,4.63-.79,8.55q17.6,25.63,35.17,51.28c15.46,22.6,30.81,45.28,46.41,67.8a51.72,51.72,0,0,0,9.39,10.21,62.87,62.87,0,0,0,34.77,14.44c5.27.5,10.63.14,15.95,0,14.57-.29,29.14-.68,43.72-1,1.93,0,2.68-.71,2.62-2.65-.1-3-.07-6,0-9,.06-3.22,1.51-4.8,4.75-4.86,5.74-.11,11.5-.09,17.25,0,2.6,0,4,1.48,4.12,4.06a27.29,27.29,0,0,1,0,4.24c-.23,2.46.87,3.17,3.21,3.09,6.91-.25,13.82-.42,20.73-.43,2.33,0,3-.81,3-3.05-.06-4.72,1.7-6.42,6.45-6.51,1.5,0,3.15-.3,4.45.22a11,11,0,0,1,4.13,3.11c.73.88.71,2.37,1,3.59l3.13-2.82c.25-.22.44-.57.73-.67.82-.27,1.84-.82,2.47-.54a2.88,2.88,0,0,1,1.12,2.19,48.12,48.12,0,0,1,0,6.24c-.09,1.34.39,1.8,1.67,1.77C358.32,389.53,360.4,389.57,362.48,389.57Zm37.37-101.4c9.48-1,19.42-2,29.34-3.17q31.76-3.67,63.49-7.47l62.49-7.39a6.37,6.37,0,0,0,5.41-3.45,58.12,58.12,0,0,1,4-6.34,6.73,6.73,0,0,0,.54-7.29c-1.37-2.86-2.64-5.75-4.08-8.57a6.38,6.38,0,0,0-1.87-1.82c-1.62-1.24-3.7-2.11-4.88-3.67-3.91-5.17-7.59-10.52-11.2-15.91-2-3-1.6-4.28,1.15-6.55a2.38,2.38,0,0,0,.78-2c-1.31-4.11-4-6-8.27-5.69-9.47.65-18.93,1.35-28.39,2-15.11,1.11-30.22,2.16-45.31,3.35-12,.95-24.07,1.88-36.06,3.17-7.22.78-13.05,4.16-15.85,11.27q-9.61,24.51-19,49.11C389.69,284,392.66,288.15,399.85,288.17Zm-48.32,14.31c.54,8.46,4.27,12.18,12.62,12.19.75,0,1.5,0,2.25,0,15-1.15,30.05-2.09,45-3.53,15.33-1.48,30.61-3.43,45.9-5.24,5.38-.63,10.73-1.45,16.09-2.14s10.56-1.69,15.86-1.89,10.33-2.23,15.75-2.3c6-.08,11.89-1.42,17.83-2.22,14.1-1.91,28.2-3.85,42.31-5.72a8.19,8.19,0,0,0,6.17-3.78c2.39-3.7,4.77-7.41,7.1-11.16a7.58,7.58,0,0,0,.35-7.41q-4.68-10.62-9.42-21.22c-.67-1.52-1.39-3-2.1-4.53-.81-1.71-2.32-1.41-3.66-1a4.08,4.08,0,0,0,.08,2.47c1.16,2.76,2.47,5.46,3.76,8.16a7.1,7.1,0,0,1-.54,7.55c-1.68,2.48-3.24,5-4.77,7.62a7.74,7.74,0,0,1-6,3.93c-2.31.28-4.64.41-7,.69q-36.95,4.39-73.89,8.81-23.17,2.75-46.38,5.41c-9.42,1.09-18.85,2.2-28.28,3.19-6.2.65-11.06-2.6-11.37-7.8a16.29,16.29,0,0,1,1.28-6.51c5.93-15.55,12.09-31,17.95-46.58,3.24-8.6,9.56-13,18.31-14.14,7.75-1,15.57-1.53,23.36-2.15q22.15-1.75,44.31-3.37c13.2-1,26.41-1.78,39.58-3,5.84-.53,10.34.62,12.84,6.46.88,2.07,3.14,2.54,5,1.37a1.41,1.41,0,0,0,.36-1.32c-2-3.43-4.1-6.85-6.32-10.16a2.86,2.86,0,0,0-2.31-.92c-5,.69-6.36-.29-6.65-5.24-.09-1.62-.7-2.23-2.3-2.1-2.91.22-5.82.35-8.72.53-15.28,1-30.56,2-45.84,2.91-4.48.27-7.12,2.28-8.67,6.56a9.52,9.52,0,0,1-2.44,3.93c-3.41,3-10.35,3.14-14.16.65-2.17-1.42-2.62-3.3-1.31-5.52.34-.57.71-1.13,1-1.73a9.88,9.88,0,0,0,.46-1.36,6.9,6.9,0,0,0-1.59-.28c-3.58.2-7.15.45-10.72.69-13.9.94-27.67,2.72-41.08,6.66a13,13,0,0,0-5.52,2.73,82.32,82.32,0,0,0-9.67,11c-6.72,9.68-11.57,20.39-16.05,31.25-5.4,13.07-10.79,26.15-16,39.29C353.06,295.51,352.45,299.06,351.53,302.48ZM132,234.05c.4,5,1.11,10,4,14.45q14.44,21.87,28.87,43.76,13.06,19.8,26.13,39.6c3.9,5.89,7.68,11.86,13.31,16.4,6.08,4.91,12.76,8.31,20.71,8.08,15.65-.44,31.28-1.14,46.92-1.73q13.72-.51,27.45-1c18.89-.68,37.77-1.48,56.66-2,7.22-.2,12.33-2.91,14.76-9.93a11,11,0,0,1,.78-1.84c.88-1.62.41-2.32-1.42-2.2l-10.71.67c-14.62.94-29.23,1.92-43.85,2.8-7.64.46-15.29.85-22.95,1.09-16.14.51-32.28,1.18-48.43,1.22A95.83,95.83,0,0,1,225,341,23.7,23.7,0,0,1,210.23,332c-4.33-5.91-8.45-12-12.67-17.95q-16.83-23.88-33.66-47.76c-4.63-6.61-9.5-13.09-13.62-20-4.77-8-5-16.22,1.06-24,2.09-2.68,3.93-5.57,5.89-8.36q16.19-23.12,32.39-46.22,13.56-19.3,27.21-38.55c1.75-2.49,1.38-3.66-1.56-4.49A50.27,50.27,0,0,0,208,123a3.89,3.89,0,0,0-3.05,1.23c-8,10.45-15.86,21-23.74,31.5Q160.76,183,140.4,210.3C135.18,217.32,132.67,225.33,132,234.05Zm209.09-43.18v-.08c-1,0-2,0-3,0-5.93-.08-10.84,1.91-13.9,7.2-4.24,7.33-8.44,14.69-12.4,22.18a41.47,41.47,0,0,0-3.57,9.53c-.95,3.88,1.34,6.13,5.23,5.91,6.07-.35,12.14-.62,18.21-.86,9.73-.4,19.47-.68,29.19-1.15,2.46-.12,5.27-.19,7.22-1.4a17.48,17.48,0,0,0,5.55-6.17c6.49-11.37,16.12-18.19,28.74-21.46,17.2-4.45,34.7-6.28,52.38-6.85a4.64,4.64,0,0,0,4.1-2.18,22.53,22.53,0,0,1,17.28-9.72c12.45-.85,24.92-1.38,37.39-2.06,5.4-.3,10.8-.65,16.2-1a7.68,7.68,0,0,0,1.55-.48,8.51,8.51,0,0,0-.81-1.21c-1.62-1.67-3.33-3.26-4.9-5a9.68,9.68,0,0,0-7.57-3.21c-22.07.16-44.15.25-66.22.59a9.58,9.58,0,0,0-6.41,2.62,24,24,0,0,1-15.38,8.5c-8,1.1-16,2-24.07,2.69C397,188,388,188.44,379,188.93,366.4,189.61,353.76,190.22,341.13,190.87Zm183.56,172.2c-2.08,0-4.16,0-6.24,0a22.57,22.57,0,0,0-2.32.27c.73.07,1.47.18,2.2.18,4.16,0,8.33,0,12.49,0,2.84,0,3.57.94,3,3.75-1,5.05-3.58,8.73-9,9.74-4.5.84-9,1.87-13.5,2.5-12.77,1.8-25.57,3.42-38.35,5.13-2.87.38-3,.71-1.74,3.24a46.86,46.86,0,0,0,12.91,15.71c16.55,12.77,34.83,15.7,54,7.11s29.8-24.16,30.69-45.15c.84-19.71-7.6-35.25-24.48-45.86a51.16,51.16,0,0,0-32.16-8c-4.81.4-5.22,1.28-3,5.46,3.41,6.46,6.43,13.15,10.17,19.41,2.87,4.81,6.56,9.13,10,13.62A3.16,3.16,0,0,0,531,351c2.15.44,5.33,4,5.39,6.09.1,3.67-2,5.91-5.7,5.94C528.69,363.08,526.69,363.06,524.69,363.07Zm-375.47-.29c-.33-3.72-.39-7.5-1.05-11.16-2.85-15.81-10.29-29.18-22.67-39.43-4.69-3.87-10.33-6.61-15.62-9.74a2.49,2.49,0,0,0-2.4.38,17.36,17.36,0,0,0-2.3,4.67,2.56,2.56,0,0,0,.95,2.21c2,1.23,4.19,2.06,6.16,3.29,15.75,9.83,25.38,23.75,27.82,42.29,1.94,14.75-1.34,28.41-10.06,40.42-12,16.58-28.54,24.93-49.14,24.32-17.69-.52-32.2-8-43.17-21.79C27.28,385.15,23.56,370,26.05,353.42a56,56,0,0,1,17.68-33.07,54.7,54.7,0,0,1,21.63-12.59c1.21-.37,2.24-.86,1.89-2.41s.08-3.83-2.15-4c-2.6-.19-5.49-.33-7.85.58a59,59,0,0,0-21.6,14.53c-11.19,11.74-17.71,25.74-18.55,42-1.05,20.42,5.56,38.1,20.7,52,19.76,18.16,42.88,22.66,68,13.92C131.93,415.33,149,390.28,149.22,362.78ZM225,330.27l3.69-.38c-.51-1-1-2-1.52-3-.11-.22-.22-.45-.31-.68l-11.55-27.36q-12.87-30.48-25.74-60.93a12.23,12.23,0,0,1-.15-9.46q8-21.53,15.9-43.08a7.32,7.32,0,0,0,.31-2.91,7.05,7.05,0,0,0-.73-2,9.85,9.85,0,0,0-1.26,1.72c-3.75,8.34-7.93,16.54-11.07,25.11-3.83,10.43-10.44,17.55-20.94,21.19a75.82,75.82,0,0,0-8.91,3.93c-6.83,3.39-8.24,9.46-3.85,15.74,5.68,8.11,11.29,16.27,16.92,24.42,11.41,16.49,22.76,33,34.26,49.46C213.59,327.14,218.43,330.34,225,330.27Zm358.67,33.28A51.35,51.35,0,0,0,580.91,344a77.47,77.47,0,0,0-33.57-41.72c-4.55-2.81-9.45-4.44-15-3.23-2.92.63-5.94.77-8.91,1.18-6,.8-11.89,1.61-17.82,2.49-.43.06-1.19.91-1.12,1,1.45,2.89,2.71,3.47,6.16,3,.83-.11,1.66-.13,2.49-.19,13.44-.89,25.51,3,36.52,10.49,14.79,10.11,22.89,24.3,24.22,42,1.48,19.56-5.6,36-20.75,48.5-13.17,10.9-28.56,15-45.37,12.17-19-3.24-33.1-13.73-42-31-1.46-2.84-3.63-3.53-6.55-2.08a10.58,10.58,0,0,1-1.55.76c-2.89.81-3,.88-1.58,3.75a72.18,72.18,0,0,0,14.23,20.05c19.18,18.94,49.45,24.82,73.84,13.22C569.66,412.34,582.79,391.74,583.65,363.55ZM96.08,276.66a157.42,157.42,0,0,0-25.95,3.82,112.76,112.76,0,0,0-44.82,21,12.18,12.18,0,0,0-1.57,1.77,10.41,10.41,0,0,0,2.35.16c7.64-1.18,15.27-2.5,22.92-3.61,4.94-.72,9.9-1.36,14.87-1.65A5.4,5.4,0,0,1,70,303.4c.71,8.94,1.36,17.88,2,26.83.12,1.55-.08,3.3,2,3.8a4.78,4.78,0,0,0,5.69-2.38c4-7.78,7.75-15.66,12-23.29,1.87-3.38,1.83-6-.89-8.62a8.57,8.57,0,0,1-1.42-2c-1.74-3.15-.49-6.08,3-6.84,2-.44,4.14-.4,6.17-.82a4.79,4.79,0,0,0,2.85-1.52,30,30,0,0,0,3.29-6.14,4.53,4.53,0,0,0-.4-3.34C102.73,276,99.68,276.82,96.08,276.66Zm39,87.86c.07-18.3-6.5-31.65-18.83-42.12-3.62-3.07-8.15-5.08-12.28-7.54-1.43-.85-2.25-.22-2.91,1.16-.92,1.92.46,2.22,1.68,2.82,16.82,8.3,26.65,21.74,28.13,40.41,2.43,30.85-25.55,55.87-56,50.62C52.15,406,35.17,386.34,35.06,363.35c-.09-18.06,7.81-32,23-41.7a52.35,52.35,0,0,1,8.3-4c2-.82,1.65-2.35,1.33-3.73-.07-.32-1.76-.6-2.54-.36a34.47,34.47,0,0,0-5.32,2.16,52.23,52.23,0,0,0,30.68,98.52C117,410.46,135.72,387.32,135.08,364.52Zm355.68-10.77q-19.12,0-38.23,0c-.88,0-2.45.13-2.53.46-.54,2.41-3.24,4.11-2.23,7a42.6,42.6,0,0,1,1.73,6.35c.36,1.95.2,4,.61,5.94a2.92,2.92,0,0,0,1.93,1.91,38.37,38.37,0,0,0,7.94.21c10.34-1.1,20.66-2.38,31-3.6q18.84-2.24,37.67-4.52a6.66,6.66,0,0,0,1.51-.54,6.37,6.37,0,0,0-1.54-.4c-4.42,0-8.83,0-13.24-.08a10.41,10.41,0,0,1-3.19-1c-1.08-.41-2.12-1.23-3.21-1.28-3.49-.17-7-.13-10.49,0-2,0-2.62-.85-2.58-2.72.07-3.61,1.91-5.32,6.3-5.34,8.91-.06,17.82,0,26.73-.06a13.24,13.24,0,0,0,3.08-.77c-1.09-.53-2.16-1.09-3.28-1.56a3.42,3.42,0,0,0-1.24,0ZM95,214.8l1.07.34c-1.06,3.8-1.86,7.68-3.25,11.35-1.33,3.48-3.33,6.71-4.91,10.1a12.25,12.25,0,0,0-.57,3,14,14,0,0,0,2.53-1.54c7.09-6.63,11.46-15.24,16.83-23.14,9.5-14,18.92-28,29-41.56,11-14.75,22.77-28.89,33.9-43.52,3.25-4.26,5.48-9.29,8.14-14a4.57,4.57,0,0,0,.25-1.37,10.33,10.33,0,0,0-1.37.41,3.43,3.43,0,0,0-1,.73c-4.61,4.68-9.53,9.11-13.74,14.13-7.9,9.44-15.31,19.29-23.11,28.82-3.14,3.84-6.37,7.87-12,8.17-2.17.12-3.33,1.27-4.31,3.17-7.51,14.71-16.62,28.43-26.19,41.86A14.23,14.23,0,0,0,95,214.8ZM486.32,351.06c5.83,0,11.66,0,17.49,0,2,0,8-5.82,7.94-7.76a4.06,4.06,0,0,0-.78-2.07c-1.08-1.55-2.46-2.92-3.39-4.55-2.48-4.33-4.79-8.76-7.14-13.16-.84-1.57-1.29-3.44-3.83-3.11-.58.08-1.54-1-1.93-1.7-.67-1.25-1.31-1.48-2.55-.78a52.72,52.72,0,0,0-24.83,30.39c-.68,2.09-.28,2.84,2,2.79C475,351,480.65,351.06,486.32,351.06ZM88.59,392.58h0c0,4.08,0,8.16,0,12.24,0,1.17.14,2.25,1.72,2.12,1.32-.11,2.52-.4,2.55-2.1,0-.42,0-.83,0-1.25q.31-16.33.61-32.69a12.29,12.29,0,0,1,.07-1.49c.39-2.93,2.88-4.31,5.41-2.81,7.59,4.51,15.1,9.14,22.69,13.65.67.39,2.09.56,2.48.16a1.87,1.87,0,0,0-.43-3.15c-.7-.45-1.33-1-2-1.45L93.9,358.08c-2.81-1.79-2.77-4.48.11-6.24,3.34-2,6.71-4,10.07-6,4.43-2.65,8.9-5.24,13.27-8,.61-.38.75-1.5,1.12-2.27a15.14,15.14,0,0,0-2.66-.25,4.7,4.7,0,0,0-1.57.75c-7.87,4.18-15.71,8.39-23.62,12.5a3.47,3.47,0,0,0-2.06,3.57c.07,4.66.07,9.33,0,14a5.52,5.52,0,0,1-3.83,5.3,5.62,5.62,0,0,1-6.23-2.07c-1.6-2.12-1.6-2.12-2.74.44a12.09,12.09,0,0,0-1.17,2.74C74,376.39,71,378,68,379.75q-8.7,5.16-17.26,10.57c-.65.41-1.41,1.63-1.23,2.19.42,1.28,1.59,1.53,2.86.81.94-.53,1.94-1,2.9-1.46,9-4.65,18-9.34,27.1-13.95,3.88-2,6.16-.57,6.18,3.69C88.6,385.26,88.59,388.92,88.59,392.58Zm390.75-204-.14-.55c-3.19.8-6.47,1.35-9.55,2.46-7,2.53-9.83,9.1-13.41,14.85-.21.33.23,1.44.68,1.76,4,2.84,10.2.78,12-3.76,1.68-4.28,4.47-7.39,9.41-7.81,3.23-.28,6.47-.56,9.7-.75q22.92-1.35,45.84-2.64c5.71-.33,5.67-.33,6.2,5.21.07.75.78,1.45,1.19,2.17.63-.62,1.7-1.17,1.82-1.88a72,72,0,0,0,.89-8.42c.17-3.38-.41-4-3.83-3.87-6.82.23-13.63.56-20.44.93-7.56.41-15.11.93-22.67,1.37C491.13,188,485.23,188.31,479.34,188.62Zm-340,174c-.37-3.71-.41-7.5-1.17-11.14a55.41,55.41,0,0,0-22.82-34.84,84.87,84.87,0,0,0-9.78-5.49c-.48-.25-1.3.14-2,.23.39.46.69,1.06,1.18,1.34,1.23.69,2.58,1.18,3.82,1.85A54.36,54.36,0,0,1,134,381.5c-9.21,25.21-36.63,40.21-62.74,34.19C44.44,409.52,26.12,385.08,29,357.76c2.35-22.64,14.57-38,35.76-46.29a9.39,9.39,0,0,0,1.84-.77c.35-.23.49-.76.73-1.16a4,4,0,0,0-1.24-.45,4.42,4.42,0,0,0-1.44.36,51.85,51.85,0,0,0-20.87,12.89C28.28,338.07,23.07,357,29,378.13,36.2,404.2,61.33,421,88.06,418.56,117.3,415.92,139.75,390.66,139.31,362.62Zm-68.4,9.62a43.31,43.31,0,0,0,2.25-3.71q10.36-22,20.67-44.06c3.93-8.37,7.89-16.71,11.78-25.09a2.64,2.64,0,0,0,.07-2.21c-2-2.41-4.08-2.13-5.47.62Q89.59,318.72,79,339.66,72.23,353,65.49,366.4c-.62,1.21-1.38,2.57.19,3.5A49.12,49.12,0,0,0,70.91,372.24Zm385.51-21.17c5.68,0,4.43.27,6.2-4.62A77.62,77.62,0,0,1,469,332.72c5.08-8.45,12.37-14.75,21-19.51,1.31-.73,1.85-1.22.4-2.42-1.3-1.08-1.66-2.44-.3-3.89,1-1.07.56-2.11-.75-2-2.19.16-4.68.25-6.47,1.33a65.6,65.6,0,0,0-30.29,39.67C451.13,351.06,451.15,351.07,456.42,351.07ZM321.13,329.62v0c1.83,0,3.67,0,5.5,0,.87,0,1.33,0,.84-1.28a7.1,7.1,0,0,1-.44-4.38c2.21-6.88,4.73-13.67,7.05-20.53,2.59-7.63,5.37-15.22,7.49-23a16,16,0,0,0-2.39-14.05c-2.74-3.76-5.15-7.77-7.7-11.66q-4.58-7-9.17-14a17,17,0,0,0-1.43-1.64,7.56,7.56,0,0,0-.37,2.3,11.77,11.77,0,0,0,1.06,3.76q4.79,9.16,9.77,18.21c4.53,8.27,5.52,16.75,2.14,25.71q-5.73,15.17-11.13,30.46c-1.32,3.76-2.51,7.42-6.67,9-.31.12-.49.56-.73.85a8.12,8.12,0,0,0,1.18.21C317.8,329.63,319.47,329.62,321.13,329.62ZM70.35,342.77c-.45-4.11-1-8.21-1.29-12.33-.15-2-.91-1.9-2.35-1.19a36.84,36.84,0,0,0-16.58,16c-1.11,2.05-.89,3.25,1.2,4.38,4.38,2.38,8.72,4.84,13,7.43,1.73,1.06,2.29.39,3.24-1C70.3,351.93,70.16,347.4,70.35,342.77Zm49.83,20A38.41,38.41,0,0,0,115.7,345c-.68-1.34-1.41-1.91-2.9-1-5.41,3.27-10.86,6.49-16.3,9.71-1.44.85-1.46,1.63,0,2.54q10.52,6.72,21,13.49c1.39.9,2,.39,2.13-1C119.8,366.7,120,364.72,120.18,362.74ZM184,94.48l.45.33,1.11,2.64A12,12,0,0,0,188,96c2.59-2.46,5-5.13,7.66-7.52a23.65,23.65,0,0,0,6.72-10.64c2.5-7.83,4.92-15.69,7.35-23.55a3.41,3.41,0,0,0-.08-1.13,6.13,6.13,0,0,0-.95.7c-7.69,8.46-15,17.25-20.05,27.57C186.64,85.57,185.51,90.13,184,94.48ZM462.06,383.17c9.07-1.2,18.14-2.34,27.2-3.64,11.19-1.6,22.37-3.26,33.53-5.1,1.94-.31,3.77-1.51,5.55-2.49.52-.28.69-1.2,1-1.83a8.37,8.37,0,0,0-2.08-.27c-7.43.9-14.85,1.91-22.28,2.78-14.78,1.73-29.57,3.39-44.35,5.1-.62.08-1.53.21-1.77.63C458.08,379.75,460.4,383.08,462.06,383.17Zm105.17-88.88c-2.35.29-4.17.48-6,.73-1.23.17-1.19.68-.29,1.35.34.24.67.49,1,.74a88.19,88.19,0,0,1,29.31,38.4c1.08,2.7,2,5.48,3,8.18a7.12,7.12,0,0,0,1.32,1.62c.12-.63.24-1.25.35-1.88.21-1.13,0-2.76.68-3.3,2.62-2.07,1.07-4,.26-6.09-.46-1.16-.9-2.33-1.39-3.48a89,89,0,0,0-26-34.9A15,15,0,0,0,567.23,294.29ZM96.55,388.87H96c0,2,0,4,0,6,0,1.68.52,2.34,2.25,1.55a37.94,37.94,0,0,0,16.39-14.53c.78-1.24.72-2-.63-2.82-5-3-9.93-6.09-14.93-9.08-1.93-1.16-2.51-.82-2.53,1.43C96.52,377.24,96.55,383.06,96.55,388.87ZM559.73,239.62c1.89-.17,3.13-.32,4.37-.4,3.49-.23,5.47-3.47,3.76-6.5-2.68-4.79-5.5-9.5-8.42-14.14a3.71,3.71,0,0,0-2.77-1.64c-3.45.44-6.87,1.21-10.27,2-1.49.34-1.82,1.29-.89,2.6,4,5.54,7.86,11.12,11.89,16.6A6.86,6.86,0,0,0,559.73,239.62ZM85.54,389.87c0-2.33,0-4.66,0-7,0-2.81-.4-3.07-2.82-1.84-6.61,3.35-13.19,6.76-19.8,10.1-1.57.79-1.93,1.42-.25,2.52a35.8,35.8,0,0,0,20.56,5.91c1.75,0,2.36-.82,2.33-2.46C85.5,394.7,85.54,392.29,85.54,389.87ZM45.71,363.6c.16,7.27,2.64,13.7,6.45,19.72.92,1.45,1.8,1.64,3.23.68,2.14-1.43,4.4-2.69,6.62-4,1.18-.71,1.23-1.28.06-2.19-3-2.33-3-2.38-1.28-5.69,1.28-2.48.82-4.46-1.48-6-2.71-1.77-5.45-3.52-8.22-5.19-1.46-.88-3-1.59-4.54-2.38Zm114.75-1.23c0-3.07-.21-5.94-2.13-8.55-3.05-4.15-5.88-8.46-8.81-12.69-.32-.45-.71-.85-1.07-1.28a9.26,9.26,0,0,0,.23,1.83,58.35,58.35,0,0,1,3.27,20.8c-.22,4.95-1,9.88-1.58,14.81a13,13,0,0,0,0,1.65c.38-.1.89-.08,1.12-.32C155.86,373.94,160.46,369.4,160.46,362.37Zm354.24,56.8c17.32-.17,30.4-5.33,41.09-15.81,14.21-13.92,19.3-31.06,15.8-50.46-3.09-17.11-12.93-29.62-28.12-38A53.66,53.66,0,0,0,511,308.24a9.54,9.54,0,0,0-2,.66c.64,0,1.28.09,1.93.1,4.31.05,8.68-.33,12.93.2a53.94,53.94,0,0,1,33.36,17.1c11.3,12.09,16.26,26.74,14.33,43.36a53.33,53.33,0,0,1-20.84,37.07,52.37,52.37,0,0,1-35.62,11.41c-20.64-.93-35.73-10.82-46.18-28.28-.56-.93-.95-1.95-1.47-2.9a4.93,4.93,0,0,0-.81-.84,5.08,5.08,0,0,0,.13,1.3,11.05,11.05,0,0,0,.87,1.8C478.4,408.51,495,418.28,514.7,419.17ZM443.21,362.3l.25,0c-.17-1.74,0-3.64-.63-5.16A5.91,5.91,0,0,0,439.5,354c-1.43-.36-3.93,0-4.66,1a107.39,107.39,0,0,0-6.73,11.36,2.06,2.06,0,0,0,.57,1.91c4,1.55,8.12,3,12.23,4.31a1.81,1.81,0,0,0,1.47-1C442.76,368.51,443,365.4,443.21,362.3ZM179.07,93.36a28.63,28.63,0,0,0,.72,4.66c.26.84,1.25,1.45,1.91,2.17a9.49,9.49,0,0,0,1-2.62c.19-2.21-.17-4.51.24-6.66,1.71-8.89,6.5-16.34,11.79-23.4,4.32-5.78,9.17-11.17,13.72-16.78.42-.52.38-1.42.55-2.15a6.2,6.2,0,0,0-2.07.74,112.55,112.55,0,0,0-20.74,24.09C182.35,79.5,179.25,85.91,179.07,93.36ZM325.46,393V393c6.24,0,12.49.05,18.73,0,3.26,0,7.21-3.35,7.63-6.34a10,10,0,0,0-.24-2.41,11.14,11.14,0,0,0-2,1.18c-1.55,1.44-2.65,3.3-5.26,3.3-6.66,0-13.31.29-20,.38-5.83.08-11.65.06-17.48.09-1.38,0-2.77,0-2.74,2s1.48,1.9,2.82,1.9C313.14,393,319.3,393,325.46,393ZM224,104.72a12.51,12.51,0,0,0-2.73-1.29c-1.67-.37-4,.13-5-.84-1.51-1.55-2.47-.83-3.89-.43-1.25.36-2.91.81-3.91.29-2.76-1.42-2.66-1.61-4.27,1.11-.43.71-.82,1.45-1.29,2.14-.88,1.29-.86,2.14.77,2.88,4.33,1.94,8.61,4,12.87,6.1a1.68,1.68,0,0,0,2.62-.83c1.31-2.41,2.69-4.78,4-7.19A18.08,18.08,0,0,0,224,104.72ZM566.38,307.56c.48,2.7.27,5.86,1.6,8.11,3.6,6.06,7.85,11.73,11.86,17.54a4.34,4.34,0,0,0,.88.76,3.86,3.86,0,0,0,.63-1c.59-2.08,1.21-4.16,1.62-6.28a3.19,3.19,0,0,0-.55-2.3q-6.78-8.91-13.73-17.7a5.65,5.65,0,0,0-1.61-1C566.86,306.25,566.65,306.84,566.38,307.56ZM42.88,361.73c.1-1.49.25-3,.29-4.47,0-2.17-1.88-2.46-3.24-3.28-.49.87-1.38,1.74-1.4,2.62a112.73,112.73,0,0,0,.08,13.13c.59,6.5,3.41,12.25,6.82,17.74,1.43,2.3,2.71.83,4.14.08,1.76-.93.68-1.82.06-2.76A39.43,39.43,0,0,1,42.88,361.73ZM224.43,23.59h.2c0,2.41-.15,4.84,0,7.24.17,2.15,0,4.55,2.57,5.79.48.23.48,1.34.84,2,.56,1,1.25,1.82,1.89,2.73.79-.92,2.26-1.82,2.28-2.77.21-7.15.21-14.32-2.13-21.22A9.08,9.08,0,0,0,228,14c-1.57-1.55-2.92-1.07-3.15,1.13C224.58,17.93,224.56,20.76,224.43,23.59ZM128.27,362.88a45.53,45.53,0,0,0-5.44-21.13c-.78-1.44-1.63-2.54-3.53-1.62s-1.72,2.22-.85,3.86A37.83,37.83,0,0,1,123,363.44c-.09,2.48-.59,4.95-.86,7.42-.16,1.49,1.83,4,3.25,3.69.69-.15,1.39-1.6,1.57-2.56C127.54,369,127.86,365.92,128.27,362.88ZM88.42,343.6c0,2,.57,2.58,2.43,1.58,5-2.69,10-5.28,15-8,2.44-1.33,2.56-2,.23-3.64-2.7-1.91-5.67-3.44-8.53-5.14-1.42-.84-2.22-.38-2.88,1.08-1.63,3.64-3.41,7.22-5.07,10.85C89.1,341.39,88.8,342.51,88.42,343.6Zm-20-19.69c0-3.53-.37-3.87-2.74-2.89a45.22,45.22,0,0,0-23,21.21c-1.07,2,.5,2.38,1.63,3.15,1.43,1,2.25.45,2.94-.94a39.62,39.62,0,0,1,19-18.34C67.4,325.59,68.09,324.31,68.47,323.91Zm27.22,78.14c-.17,3.24.26,3.62,2.51,2.82a44.64,44.64,0,0,0,23.24-18.75c1-1.52.52-2.33-.89-3.18s-2.3-1.27-3.39.53c-4.64,7.65-11.31,12.94-19.48,16.5C96.67,400.42,96,401.68,95.69,402.05Zm-49.64-98.8c-5.06.75-9.84,1.43-14.6,2.21a3.23,3.23,0,0,0-1.61,1.11q-5.82,6.81-11.55,13.7a7.34,7.34,0,0,0-.77,1.73,12.44,12.44,0,0,0,1.78-.62c4.16-2.28,8.43-4.39,12.4-7,4.94-3.18,9.63-6.75,14.42-10.17.24-.17.35-.51.52-.77ZM80.53,407.52H82c1.73,0,3.55.35,3.56-2.46s-1.79-2.43-3.54-2.5c-7.19-.27-14-1.95-20.08-5.94-1-.64-2-1.27-3-1.86s-4.93.14-5,1.27c-.07.76,1,1.83,1.86,2.44A44.5,44.5,0,0,0,80.53,407.52Zm74.35-15.95-.31-.85a4.3,4.3,0,0,0-.87.4c-2.31,1.75-4.38,4-7,5.2-6.64,3-9.33,9.78-14.36,14.27-.23.21-.19.7-.28,1.06a2.58,2.58,0,0,0,1,.05c4.19-1.57,8.92-2.41,12.44-4.93C150.52,403.16,152.06,396.79,154.88,391.57Zm-41,41.39a5.23,5.23,0,0,0,1.37-.24q7.08-4.17,14.13-8.4c.22-.14.29-.55.43-.83a4.76,4.76,0,0,0-1.33-.38c-4.24.13-8.48.28-12.72.48a6.29,6.29,0,0,0-1.9.57q-5.32,2.14-10.62,4.33a8.86,8.86,0,0,0-1,.58c.32.32.58.83,1,.94C106.83,431.06,110.52,432,113.87,433ZM216.25,122l3.24-1.13c-.68-.74-1.22-1.76-2.06-2.18-5.8-2.92-11.66-5.69-17.48-8.56-3.14-1.55-4-.63-6.14,3.38-1.28,2.37,1.86,1.92,3,2.75a7.1,7.1,0,0,0,2.3.94C204.85,118.8,210.62,120.4,216.25,122ZM97,438.75c4.63-1.33,9.1-2.62,13.56-3.93.28-.08.49-.41.73-.62a6.83,6.83,0,0,0-1.2-.68c-3.39-1.12-6.79-2.23-10.2-3.3a4.83,4.83,0,0,0-1.93-.34c-4.62.52-9.23,1.11-13.85,1.69a3.27,3.27,0,0,0-.84.37c.2.24.34.56.59.7,1.16.66,2.31,1.34,3.52,1.89C90.56,436,93.76,437.33,97,438.75Zm62.68-66.28-.16-1.14a6.75,6.75,0,0,0-1,1c-2.29,3.5-4.73,6.85-8.39,9.08a3,3,0,0,0-1.11,1.3q-2.78,6.39-5.45,12.83a2.7,2.7,0,0,0-.07.91,2.25,2.25,0,0,0,.92-.15c1.39-.9,2.76-1.85,4.12-2.81,5.32-3.74,9.61-8.18,10.22-15.12C158.94,376.47,159.35,374.59,159.69,372.47Zm131.4,5.61c-2.5,0-5,0-7.49,0-1.74,0-2.64.68-2.62,2.49,0,2.91-.05,5.82.06,8.72,0,.67.63,1.31,1,2a7.62,7.62,0,0,0,.91-1.8c.89-4.38,2.67-5.87,7.23-5.89,2.91,0,5.82-.06,8.73,0,1.76,0,2.62-.55,2.54-2.44s-.4-3.11-2.61-3.06C296.24,378.12,293.66,378.08,291.09,378.08Zm-220.22,61,1.75-.29a3.16,3.16,0,0,0-.44-.81q-4.22-4.4-8.49-8.75a4,4,0,0,0-1.26-.77q-5.85-2.52-11.71-5a8.57,8.57,0,0,0-1.16-.3,3.52,3.52,0,0,0,.24,1.34q3.72,5.31,7.54,10.53a2.79,2.79,0,0,0,1.46.91C62.9,437,67,438.07,70.87,439.06Zm12.16.86c2.74-.17,5.48-.32,8.22-.53a6.06,6.06,0,0,0,1.37-.44,8.21,8.21,0,0,0-1.24-1c-3.55-1.84-7.1-3.67-10.68-5.45a11.41,11.41,0,0,0-3-1.15c-3.27-.6-6.56-1.08-9.85-1.58a4.75,4.75,0,0,0-1.18.1c.08.38,0,.88.27,1.12C71.37,435.64,75.55,440.77,83,439.92ZM35.88,413.15a6.05,6.05,0,0,0-.12,2c1.3,3.66,2.65,7.31,4.09,10.92a3.6,3.6,0,0,0,1.55,1.54c3.1,1.76,6.23,3.49,9.39,5.14a28.89,28.89,0,0,0,3.44,1.28c-.64-1-1.23-2.06-1.92-3-3.61-5-5.58-11.34-11.8-14.25a17.66,17.66,0,0,1-3.26-2.67C36.94,413.86,36.59,413.65,35.88,413.15Zm-30-44.28c.36,2.45.81,5.57,1.3,8.68a3.57,3.57,0,0,0,.54,1A9.3,9.3,0,0,0,8,377.45c.9-5,2-9.95,5.36-14a2.69,2.69,0,0,0,.5-1.39q.76-6.79,1.45-13.61a3.28,3.28,0,0,0-.27-1.1c-.34.2-.78.32-1,.61C9.68,354,6.17,360.42,5.86,368.87Zm18.19,34.3-.31.06c.64,3.33,1.22,6.67,2,10a5.45,5.45,0,0,0,1.38,2.58c2.82,2.69,5.74,5.27,8.65,7.87a5.85,5.85,0,0,0,1.26.68c-.1-.45-.16-.92-.29-1.36-.8-2.79-2-5.52-2.33-8.36a12,12,0,0,0-3.3-6.73C29.43,406,28,404,26.37,402.08c-.56-.68-1.19-1.3-1.79-1.95-.18.93-.36,1.86-.53,2.79A2.09,2.09,0,0,0,24.05,403.17Zm491.73-45.52c-4.58,0-9.16,0-13.74,0-1.05,0-2.45,0-3.06.65a5.82,5.82,0,0,0-1.31,3.41c0,.34,1.43,1.18,2.23,1.21,3.16.15,6.33.13,9.49,0,.8,0,2.11-.42,2.29-1,.7-2,2.18-2,3.81-2,5,0,10,.06,15-.06.77,0,1.52-.83,2.27-1.27-.74-.34-1.48-1-2.23-1C525.61,357.61,520.69,357.65,515.78,357.65Zm65.92-21.12a5.75,5.75,0,0,0,.06.75c1.31,4.8,2.61,9.6,4,14.38a1.31,1.31,0,0,0,1,.75c1.32-.2,5.11-5.59,4.65-6.89-1.9-5.39-4-10.72-6-16-.07-.19-1.36-.21-1.4-.07C583.1,331.83,582.38,334.3,581.7,336.53Zm-16.27-28.68c.54-3.09-1-5.76-4.2-7.66-1.43-.85-2.65-2.06-4.12-2.8a9.06,9.06,0,0,0-4-1.07,44.88,44.88,0,0,0-6.19.75,10.45,10.45,0,0,0-1.57.48,11.18,11.18,0,0,0,1.34,1,69.86,69.86,0,0,1,15.9,11.55c.75.7,1.57,1.34,2.35,2,.15-1,.31-2,.46-3.08C565.45,308.85,565.43,308.68,565.43,307.85ZM474.78,426.12c-.35-2.75-.6-5-.94-7.19a2.53,2.53,0,0,0-.75-1.24q-5.13-5.24-10.35-10.39c-.21-.21-.8-.05-1.22-.05q.06,4.5.13,9c3.9,3.32,7.8,6.66,11.74,9.94C473.65,426.43,474.32,426.16,474.78,426.12ZM586.59,363.6h0c0,1.49,0,3,0,4.48,0,1.29,0,2.58.05,3.87a19.6,19.6,0,0,0,3.44-2.29c1.29-1.28,3.21-2.82,3.25-4.3.11-4.78-.49-9.58-.86-14.38a4.22,4.22,0,0,0-.58-1.29,5.08,5.08,0,0,0-1.22.66c-2.76,2.76-5.09,5.68-4.09,10A14.49,14.49,0,0,1,586.59,363.6Zm-42.5,64.48c-.75.09-.92.09-1.08.13-4.87,1.34-9.74,2.67-14.6,4.06a1.2,1.2,0,0,0-.62,1c.38,1.24,6.22,4.74,7.47,4.34,4.65-1.49,9.26-3.1,13.85-4.76.37-.13.75-1.34.7-1.37C547.8,430.21,545.73,429,544.09,428.08Zm-83.76-23.21a2.42,2.42,0,0,0-.21-.88c-2.37-4.27-4.74-8.54-7.18-12.76-.16-.28-1.28-.35-1.28-.34-.78,2.81-2.84,6.21-1.93,8.34,2,4.71,5.51,8.78,8.46,13.08a1.73,1.73,0,0,0,1.21-.23C459.76,409.79,460,407.49,460.33,404.87Zm48.72,35c.77-.41,2.11-.75,2.15-1.2.14-1.54-4.57-6.15-6.22-6.52-3.07-.71-6.12-1.49-9.18-2.25l-3.76-.92a16.59,16.59,0,0,0,.89,3.92c.71,1.46,1.6,3.52,2.86,3.91C500,438.11,504.49,438.83,509.05,439.83Zm68.38-34.68c3.08.56,4.72-1.08,5.91-3.59,1.52-3.22,3.14-6.4,4.6-9.65A24.28,24.28,0,0,0,589,388.2a34.75,34.75,0,0,1-3.63,1.39,9.37,9.37,0,0,0-6.56,6.18c-.78,2-2.22,3.7-3.27,5.58-.58,1-1,2.16-1.47,3.24Zm-17.66,14a3.72,3.72,0,0,0-1.06.28c-3.91,2.35-7.81,4.71-11.67,7.15a1.5,1.5,0,0,0,0,1.44c2.8,2.85,5.87,3.27,9.25,1.08s6.41-4.45,9.54-6.78c.36-.26.4-1.64.37-1.65C564.12,420.07,562,419.6,559.77,419.1Zm-42.34,14v0c-1.33,0-2.66-.05-4,0-1.13.05-2.25.24-3.37.37a15.19,15.19,0,0,0,1.68,3.11c1.1,1.25,2.46,3.19,3.72,3.2,4.89,0,9.78-.56,14.66-.95a3.18,3.18,0,0,0,1.07-.54,4.72,4.72,0,0,0-.69-.95c-3.09-2.73-6.23-5.31-10.84-4.26A10.46,10.46,0,0,1,517.43,433.07ZM8.27,382.42c1.32,3.74,2.6,7.38,3.91,11,.09.24.43.38.65.57.06-.33.09-.65.16-1,.89-4,1.79-8.06,2.65-12.1a6.78,6.78,0,0,0,.19-2.19c-.52-3.7-1.1-7.39-1.69-11.08a10,10,0,0,0-.62-1.71c-.38.53-1,1-1.12,1.59C11,372.38,9.69,377.24,8.27,382.42Zm467.29,39a57.82,57.82,0,0,0,1.09,5.74,4.05,4.05,0,0,0,1.73,2.24c3.76,2,7.6,3.77,11.44,5.57a6.47,6.47,0,0,0,1.9.26,13.93,13.93,0,0,0-.28-1.83,30.94,30.94,0,0,0-1.31-4,5.13,5.13,0,0,0-1.74-2.28c-3.7-2.23-7.48-4.33-11.26-6.44a5.52,5.52,0,0,0-1.33-.34Zm99.82-15.17c-1.19.31-3.06.26-4.08,1.16-3.2,2.87-6.11,6.09-9.08,9.22-.29.3-.5,1.14-.31,1.38,1.09,1.35,7.38,1.47,8.61.13,2.41-2.63,4.77-5.32,7.05-8.06a20.79,20.79,0,0,0,1.78-3.13ZM64.48,361.62l.61-.86c-.8-.41-1.6-.81-2.38-1.26-6.54-3.81-13.06-7.67-19.66-11.4a2.8,2.8,0,0,0-2.63.12c-.88,1-.8,2.09.7,3,6.6,4,13.11,8.24,19.68,12.33.64.39,1.82.83,2.18.54A7.94,7.94,0,0,0,64.48,361.62Zm528.7,10.51-.2,0v-2.44c-.74.45-1.51.86-2.21,1.35a35.31,35.31,0,0,0-3.39,2.55,5.67,5.67,0,0,0-1.71,2.3c-1.18,4-2.21,8-3.23,12-.07.3.36,1.07.56,1.07,2.69,0,7.55-3.65,8.15-6.3C591.93,379.16,592.51,375.64,593.18,372.13ZM294.23,386.56v0c-1.66,0-3.32,0-5,0-2.14,0-3.34,1.25-3.19,3.28a15.27,15.27,0,0,0,1.36,4.66c.15.34,1.77.51,1.85.34,1-2.13,3-1.81,4.75-1.9s3.82-.21,5.7-.46a2.17,2.17,0,0,0,1.52-1c1.3-2.86-.12-4.94-3.27-5ZM215.44,84.64h0c0-.92,0-1.83,0-2.75,0-3-.71-3.6-3.73-3.32-1.92.18-2.88,1-2.72,3,.11,1.48-.07,3,.08,4.48.07.75.4,1.92.91,2.12,3.56,1.35,3.86,4.15,3.71,7.33a4.08,4.08,0,0,0,.87,2.36c1.42-.19,3.21-.24,3.37-2.24.16-1.85.57-3.84-1.64-5-.49-.27-.73-1.27-.79-2C215.36,87.31,215.44,86,215.44,84.64ZM504.72,315.75c-1.74-.08-3.64,2.54-2.94,3.87,2.62,5,5.28,10,8,14.93,1.07,1.91,2.45.51,3.67.05s1.06-1.4.51-2.39c-2.8-5.1-5.56-10.21-8.36-15.31A8.1,8.1,0,0,0,504.72,315.75Zm-68.06,63.06.19-.69a22.41,22.41,0,0,0,3.48-.05A10.27,10.27,0,0,0,442.8,377c-.69-.68-1.25-1.68-2.08-2-3.72-1.44-7.52-2.66-11.27-4-3.51-1.27-3.45-1.27-5.33,1.94-.81,1.38-.85,2.28.9,2.74Q430.84,377.21,436.66,378.81ZM114.46,331.2c-.12-.28-.21-1-.61-1.28-4.46-3-8.89-6.05-13.51-8.78-1.7-1-2.18,1.09-2.59,2.21a2.38,2.38,0,0,0,.64,2.15c4,2.7,8,5.25,12.09,7.86A2.72,2.72,0,0,0,114.46,331.2Zm315.68,53.32c3.57,0,7.14,0,10.7,0,1.12,0,2.51.25,2.51-1.56,0-1.64-1.14-1.8-2.39-1.8-6.55,0-13.11,0-19.66.07a5.41,5.41,0,0,0-2.7,1.35c-.44.34-.56,1.09-.82,1.66a12,12,0,0,0,1.66.28C423,384.53,426.57,384.52,430.14,384.52ZM232.64,98.6c0,2.07.73,3,3.58,4.94,1.47,1,2.53,1.54,3.2-.79a4.42,4.42,0,0,1,1.77-2.33c2.49-1.5,1.69-2.63-.18-3.85-.55-.35-1-.91-1.55-1.24C236,93.33,232.67,95,232.64,98.6Zm148.43,229v.07h.74c3.42,0,4.53-1.07,4.56-4.35,0-2.72-.53-3.12-4.29-3.1-.16,0-.33,0-.49,0-2.43,0-5.1,2.37-4.95,4.74.05.92,1.12,2,2,2.56C379.2,327.91,380.24,327.6,381.07,327.6ZM228.48,99.43c.42,1.6,1,4.35,1.9,7,.62,1.85,2.37,1.52,3.86,1.31a5.33,5.33,0,0,0,1.45-.69c-.82-.67-1.64-1.34-2.47-2-.39-.31-.83-.57-1.21-.89-2.29-2-2.89-6.18-1.34-9.22,1.45-2.83,3.94-3.93,7.35-3.17,1,.21,1.9.61,2.87.86a1.89,1.89,0,0,0,.82-.14,3,3,0,0,0-.19-.69c-1.36-2.47-7.63-3.48-10-1.7C228.82,92.21,228.8,95.23,228.48,99.43ZM107.67,294.32a7,7,0,0,0,1-1.19,41.11,41.11,0,0,1,2-3.72c1.7-2.36.93-4.26-.68-6.23-1-1.17-1.55-1.35-2.3.11-1.13,2.22-2.37,4.37-3.48,6.59S104.84,294.41,107.67,294.32Zm300.68,27.85h0c3.66,0,7.33,0,11,0,.63,0,1.24-.54,1.86-.83-.63-.36-1.24-1-1.91-1-1.65-.15-3.33,0-5-.08-2.77-.19-5.53-.72-8.3-.73s-5.36.49-8,.75c-.58.05-1.17,0-1.74,0a4.12,4.12,0,0,0-1.05.48c.24.39.4,1,.74,1.13a6.45,6.45,0,0,0,2.19.3C401.52,322.19,404.93,322.17,408.35,322.17ZM235,26.07l.37,0c-.46-3.87-.72-7.79-1.48-11.6a15.55,15.55,0,0,0-2.58-5.59,2.86,2.86,0,0,0-4.84,0c-.26.43,0,1.75.34,1.87,4.17,1.56,5.6,5.09,6.29,9s1,7.9,1.49,11.86a4,4,0,0,0,.26.78,3.66,3.66,0,0,0,.14-.72C235,29.73,235,27.9,235,26.07Zm282.7,325h0c1.73,0,3.48.07,5.21,0a9.89,9.89,0,0,0,2.21-.63,40.18,40.18,0,0,0-2.33-3.41c-.12-.15-1.12.17-1.52.51-1.74,1.46-3.71,2.31-5.63.8-2.33-1.82-3.39-.25-4.64,1.22-.86,1-.42,1.5.73,1.52C513.67,351.07,515.66,351.05,517.65,351.05ZM245.51,101.57a4,4,0,0,0-3.72,3.66,3.56,3.56,0,1,0,3.72-3.66ZM491.4,314.9l-.19-.42a12.47,12.47,0,0,0-1.73.69c-13.19,7.69-22,18.82-26.1,33.54a5.21,5.21,0,0,0,0,1.52,13.8,13.8,0,0,0,.67-1.54,54.19,54.19,0,0,1,15.09-24.85c3.27-3,7.18-5.35,10.8-8C490.44,315.52,490.93,315.22,491.4,314.9ZM206.23,87.53l-.31,0a10.7,10.7,0,0,0-.06-2.72,7,7,0,0,0-1.28-1.91A7.66,7.66,0,0,0,203,84.07c-.71.91-1.16,2-1.9,2.91-1,1.19-.92,2,.51,2.71l3.75,1.78ZM97,292.88c-2.13.84-5.13-.18-5.09,2.56,0,1.59,2.1,3.15,3.24,4.71,1.14-1.94,2.33-3.87,3.33-5.88C98.56,294.08,97.46,293.31,97,292.88Zm351.16,94.68c-3.68,0-3.83.18-2.53,3.55.45,1.15,1,2.29,1.49,3.41a4.41,4.41,0,0,0,.77.86,5.53,5.53,0,0,0,.68-.95c.54-1.21,1-2.47,1.54-3.66C451.64,387.57,451.65,387.56,448.15,387.56Zm-109.42-1.63c1.72.09,3.2.09,3.19-2.31,0-2.22-1.22-2.56-3-2.58s-3,.36-3,2.58S337,386.16,338.73,385.93ZM232.39,84c-3.78,0-5.88,1.85-6.28,5.28a8.11,8.11,0,0,0,.06,1.2c.37-.21.76-.41,1.12-.64,2.27-1.41,4.49-2.91,6.82-4.19a7.09,7.09,0,0,1,2.65-.29c-1-.43-2.07-.9-3.13-1.26A4.47,4.47,0,0,0,232.39,84Zm-9.31,4s-.33-.43-.68-.87c-.45.48-1.25.93-1.28,1.43-.14,2.48,0,5-.15,7.45a12.3,12.3,0,0,1-1.2,3.32,4.46,4.46,0,0,1-.49.76,3.86,3.86,0,0,0,.88.31c1.32.1,2.26-.2,2.33-1.82C222.62,95.19,222.85,91.89,223.08,87.92ZM85.54,354.53h0c0-1,0-2,0-3a4.28,4.28,0,0,0-.36-1.06,3.1,3.1,0,0,0-.64.67c-1,2.16-2,4.32-3,6.51a1,1,0,0,0,.25,1c1.9,1.14,3.74.05,3.76-2.17C85.55,355.85,85.54,355.19,85.54,354.53ZM209,94.94h-.08a34.63,34.63,0,0,0,.27,3.69,1.38,1.38,0,0,0,1,.91c.34,0,1.06-.45,1.07-.73.07-2.29.1-4.59-.05-6.87,0-.4-.94-.74-1.44-1.1a4.81,4.81,0,0,0-.72,1.38A20.54,20.54,0,0,0,209,94.94ZM515.54,336.26c-1.2,1.33-2.32,2.17-2.19,2.49a47.21,47.21,0,0,0,2.67,4.88c.71-.62,2.13-1.44,2-1.83A40.55,40.55,0,0,0,515.54,336.26Zm-61.85,44c-1.36,1.09-2.81,1.67-3,2.5-.39,2,1.42,1.78,2.68,1.75s3.06.49,2.88-1.57C456.21,382.11,454.86,381.4,453.69,380.25Zm-6.26-.86h-.06c-.18-3.22-.33-6.43-.57-9.64a4.83,4.83,0,0,0-.68-1.51c-.21.48-.61,1-.59,1.42.14,3.63.35,7.26.6,10.88,0,.37.47.71.72,1.07a4.1,4.1,0,0,0,.56-1A5,5,0,0,0,447.43,379.39ZM73,340.65a13.09,13.09,0,0,0,0,1.43c.06.55.19,1.08.29,1.62a8.52,8.52,0,0,0,1-1.27c.63-1.15,1.18-2.35,1.79-3.52.84-1.62,0-1.89-1.38-1.74C72.16,337.47,73.34,339.52,73,340.65ZM443.69,349l.34.08a14.6,14.6,0,0,0,.05,2.73c.1.54.65,1,1,1.49.3-.5.81-1,.85-1.51a11.88,11.88,0,0,0-.29-3c-.24-1.17-.64-2.3-1-3.44ZM62.28,374.57a22.61,22.61,0,0,0,4,1.82c.4.09,1-.9,1.57-1.39a22.21,22.21,0,0,0-3.25-1.9C64.24,373,63.53,373.74,62.28,374.57ZM391.41,329l3.47-1.38a12.86,12.86,0,0,0-3.33-.89,10.27,10.27,0,0,0-3,1Zm35.28-7c2.2-.23,4.1-.42,6-.66.28,0,.52-.31.79-.47a1.8,1.8,0,0,0-.62-.25c-2.41-.09-4.82-.19-7.22-.2-.29,0-.59.43-.88.66.25.29.45.71.76.82A3.53,3.53,0,0,0,426.69,322Zm77-15.5c-.61.1-1,0-1.23.22q-3.79,2.79-7.52,5.64c-.21.16-.25.51-.37.78a2.64,2.64,0,0,0,.88-.21q3.81-2.76,7.58-5.57A5.83,5.83,0,0,0,503.73,306.54Zm2.51,4.57c-.58,0-1-.06-1.2.1-2.53,1.85-5.05,3.74-7.54,5.64-.22.17-.29.52-.42.79.3,0,.69.07.89-.08,2.54-1.86,5-3.74,7.56-5.64A6.72,6.72,0,0,0,506.24,311.11Zm-5.3-8.4-.22-.66a2.94,2.94,0,0,0-.68.28c-2.47,1.82-5,3.65-7.41,5.5a2.84,2.84,0,0,0-.5.81c.36-.06.81,0,1.08-.2,2.35-1.72,4.66-3.48,7-5.23C500.47,303,500.76,302.83,500.94,302.71Zm100.38,41.17-1.4-2.46a7.09,7.09,0,0,0-.84,2.32,9.13,9.13,0,0,0,.83,2.58ZM82.92,366l-2.25.77c.77.58,1.54,1.61,2.31,1.62s1.58-1,2.37-1.56Zm356.27-14.48,1.62-1.76c-.47-.33-1.07-1-1.38-.93a6.86,6.86,0,0,0-1.81,1.38ZM265.7,331.7l2-.64a9.64,9.64,0,0,0-1.81-.35,12.73,12.73,0,0,0-2.1.33Zm134.37-5.45,2.16-.5a5.71,5.71,0,0,0-1.69-.5,11.93,11.93,0,0,0-2.25.44Zm-144.16,5.44,1.81-.64a8.89,8.89,0,0,0-1.88-.31,10.81,10.81,0,0,0-2,.52Zm49.56-.52,1.76-.65a4.75,4.75,0,0,0-1.4-.27,11.52,11.52,0,0,0-1.95.53Zm-58.84-.28-2.08.47a10.43,10.43,0,0,0,1.83.19,5.24,5.24,0,0,0,1.38-.47ZM83,361.69c-.3.37-.63.6-.63.83s.3.49.48.73c.26-.24.6-.43.75-.73C83.68,362.41,83.31,362.08,83,361.69ZM275.7,331.26l1.68-.44a11.27,11.27,0,0,0-1.41-.16c-.62,0-1.25.14-1.88.21Zm10-.06,1.72-.3a10.45,10.45,0,0,0-1.65-.25,10.72,10.72,0,0,0-1.68.21Zm9.68-.05,2-.25a6.88,6.88,0,0,0-1.3-.28c-.65,0-1.3.12-1.95.18ZM236,331l-1.91.39a8.21,8.21,0,0,0,1.39.22c.63,0,1.27-.11,1.9-.17ZM205.72,78.06c-.22.32-.43.49-.45.69s.12.4.2.61c.14-.17.35-.31.4-.5S205.8,78.44,205.72,78.06ZM445.78,361.6a9.56,9.56,0,0,0-.2,1.16,4.27,4.27,0,0,0,.07.71c.08-.14.23-.28.24-.43C445.9,362.73,445.85,362.42,445.78,361.6Zm6,16.08-.39.18a1.15,1.15,0,0,0,.4.17c.13,0,.26-.11.39-.17Zm-61-54.4-.37.18a3.69,3.69,0,0,0,.45.11c.07,0,.14-.05.22-.08Z" transform="translate(-1.21 -2.91)" style="stroke:#000;stroke-width:3px"/><path d="M105.49,192.77l.5-1,0,0-.5,1Z" transform="translate(-1.21 -2.91)" style="stroke:#000;stroke-width:3px"/><polygon points="334.98 375.98 335.14 375.94 335.02 375.85 334.98 375.98" style="stroke:#000;stroke-width:3px"/><path d="M347.57,261.92c-1.38-.83-3.11-1.37-4.07-2.54-3.42-4.18-6.7-8.48-9.78-12.91-2.49-3.57-.56-7.11,3.81-7.24q12.35-.34,24.7-.51c4.1-.05,5.38,2.16,3.39,5.79-2.36,4.3-4.86,8.52-7.15,12.86a6.46,6.46,0,0,1-6.17,3.84c-1.49,0-3,.16-4.48.24Zm-4.06-6.22.5.51c.64,1.81,1.81,3.08,3.82,3,3-.19,6.53.93,8.54-2.55q3.79-6.57,7.44-13.24c1-1.84.56-2.59-1.61-2.56q-12.33.19-24.65.54c-2.24.07-3.22,1.64-2.1,3.58a48.46,48.46,0,0,0,4.06,5.28l1.49,2,1.5,2C342.84,254.71,343.17,255.21,343.51,255.7Z" transform="translate(-1.21 -2.91)" style="stroke:#000;stroke-width:4px"/><path d="M344,256.22l-.51-.5-1-1.5-1.5-2-1.51-2c-.8-1.35-1.61-2.7-2.39-4.06-1.39-2.41-.66-3.91,2-4q10.2-.31,20.42-.49c3-.05,3.56,1.05,2.11,3.7-1.55,2.84-3.15,5.66-4.77,8.45C353.81,259.14,348.8,260.05,344,256.22Zm.09-13.31-.34.43c-1.49.12-3,.27-4.47.37s-1.75.81-.93,1.94c2.44,3.35,4.81,6.76,7.41,10,1.84,2.27,7.07,2,8.62-.45,2.18-3.43,4.12-7,6-10.59.17-.32-.68-1.62-.76-1.59-1.77.59-4.35-.92-5.25,2-.12.37-1.12.63-1.74.67a25.67,25.67,0,0,1-4.47,0,4.89,4.89,0,0,1-2-1.09C345.47,244.1,344.79,243.49,344.09,242.91Z" transform="translate(-1.21 -2.91)" style="stroke:#000;stroke-width:4px"/></svg>