<?xml version="1.0" encoding="iso-8859-1"?>
<!-- Generator: Adobe Illustrator 16.0.0, SVG Export Plug-In . SVG Version: 6.00 Build 0)  -->
<!DOCTYPE svg PUBLIC "-//W3C//DTD SVG 1.1//EN" "http://www.w3.org/Graphics/SVG/1.1/DTD/svg11.dtd">
<svg version="1.1" xmlns="http://www.w3.org/2000/svg" xmlns:xlink="http://www.w3.org/1999/xlink" x="0px" y="0px"
	 width="514.545px" height="514.545px" viewBox="0 0 514.545 514.545" style="enable-background:new 0 0 514.545 514.545;"
	 xml:space="preserve">
<g>
	<path d="M487.502,305.259c-0.145-0.504-0.263-0.952-0.416-1.474c-8.932-28.53-33.906-39.358-52.424-43.469
		c-0.065-0.191-0.108-0.377-0.179-0.575l-54.092-99.231c-3.272-8.325-11.131-13.485-19.535-13.751l-8.699-18.574
		c0-25.013-16.412-37.962-38.595-43.168c-3.295-4.307-8.471-7.097-14.315-7.097h-13.139c-9.953,0-18.014,8.062-18.014,18.014
		c0,9.95,8.055,18.014,18.014,18.014h13.139c2.096,0,4.09-0.369,5.943-1.026c6.687,2.449,11.359,7.035,11.359,15.265
		c0,0,56.356,143.213,44.493,170.529c-11.874,27.315-120.581,3.819-120.581,3.819c-2.857-9.871-5.481-22.293-6.95-37.555
		c-1.686-17.313,0.646-32.102,4.191-43.806c14.04-2.342,24.755-14.515,24.755-29.224c0-16.372-13.267-29.658-29.646-29.658H68.208
		c-16.383,0-29.658,13.286-29.658,29.658c0,1.442,0.137,2.843,0.336,4.219c-8.207,4.44-14.825,11.409-18.899,19.831
		C8.663,217.789,0,227.573,0,239.406v11.86c0,8.881,4.886,16.607,12.109,20.674c-2.281,24.821-4.842,54.09-4.842,59.766
		c0,14.325,10.323,26.21,23.932,28.678c-0.021,0.701-0.049,1.391-0.049,2.102c0,40.883,33.256,74.137,74.137,74.137
		c40.882,0,74.139-33.262,74.139-74.137c0-0.547-0.033-1.067-0.045-1.598h154.958v0.122c12.017,0,23.226-3.46,32.723-9.381
		c-0.523,3.546-0.799,7.163-0.799,10.856c0,40.887,33.259,74.141,74.146,74.141c40.875,0,74.137-33.258,74.137-74.141
		C514.55,339.466,504.012,318.867,487.502,305.259z M105.281,406.967c-24.536,0-44.49-19.955-44.49-44.482
		c0-0.536,0.075-1.056,0.084-1.593h88.805c0.025,0.537,0.091,1.057,0.091,1.593C149.762,387.012,129.807,406.967,105.281,406.967z
		 M440.408,406.967c-24.536,0-44.481-19.955-44.481-44.482c0-15.441,7.918-29.062,19.896-37.04
		c19.007-2.709,34.896-1.924,46.988-1.33c13.188,7.727,22.085,22.009,22.085,38.381
		C484.892,387.012,464.944,406.967,440.408,406.967z"/>
</g>
</svg>
