<svg id="Laag_1" data-name="Laag 1" xmlns="http://www.w3.org/2000/svg" viewBox="0 0 395.4 323.5"><title>Icone Scooter martijn1</title><path d="M486.12,228.71q50,0,100,0c9.26,0,14.95-5.57,13.88-13.6a17.83,17.83,0,0,0-2.25-6c-2.72-5-5.68-9.8-8.49-14.71-7.59-13.3-3.46-29.51,9.39-37a26.73,26.73,0,0,1,37,9.52q22.68,38.55,44.76,77.45c10.23,18.09-2.52,40.52-23.27,39.7-13.94-.55-21.44,5.05-28,16.68-26.65,47.12-54,93.84-81.33,140.57-27.1,46.33-92.2,48-120.91,2.66-17.63-27.85-33.42-56.86-50-85.36Q358.38,326.85,340,295.05c-4.19-7.27-9.91-11-18.68-10.85-5.68.12-11.87-.4-17-2.59-14.66-6.24-20-23.52-12-37.42q22.1-38.59,44.53-77a26.79,26.79,0,0,1,36.86-10c12.81,7.34,17.21,23,10.08,36.44-2.81,5.3-6,10.39-8.94,15.62-5.74,10.23-.46,19.4,11.34,19.42C419.47,228.76,452.79,228.71,486.12,228.71Zm.4,55.68c-19.66,0-39.32-.15-59,.05-14.57.16-21.87,12.41-14.76,24.79Q442.53,361,472.6,412.58c6.76,11.58,20.64,11.56,27.42-.06q30.24-51.78,60-103.82a19.24,19.24,0,0,0,2.17-10.93c-.93-8.46-7.73-13.31-17.69-13.36C525.17,284.33,505.84,284.39,486.52,284.39Z" transform="translate(-288.58 -153.54)" style="fill:#fff"/></svg>